<svg id="Capa_1" enable-background="new 0 0 512 512" height="512" viewBox="0 0 512 512" width="512" xmlns="http://www.w3.org/2000/svg"><g><g><g><g><g><g><circle cx="256" cy="256" fill="#ffce00" r="256"/></g></g></g></g></g><path d="m512 256c0-22.581-2.924-44.479-8.413-65.336l-104.304-104.304-286.566 211.765 46.94 46.94-46.94 17.528 45.794 45.793-45.794 18.675 76.007 76.007c21.437 5.824 43.994 8.932 67.276 8.932 141.385 0 256-114.615 256-256z" fill="#ffa300"/><g><path d="m112.716 86.36h286.567v211.764h-286.567z" fill="#fff"/></g><g><path d="m256.12 86.36h143.163v211.764h-143.163z" fill="#e9edf5"/></g><g><g><path d="m145.231 119.577h144.651v30h-144.651z" fill="#555a66"/></g><g><path d="m256.12 119.577h33.761v30h-33.761z" fill="#333940"/></g><g><path d="m145.231 227.74h144.651v30h-144.651z" fill="#555a66"/></g><g><path d="m256.12 227.74h33.761v30h-33.761z" fill="#333940"/></g><g><path d="m145.231 173.659h63.204v30h-63.204z" fill="#555a66"/></g><g><path d="m239.059 173.659h127.71v30h-127.71z" fill="#555a66"/></g><g><path d="m256.12 173.659h110.648v30h-110.648z" fill="#333940"/></g><g><path d="m314.643 119.577h52.126v30h-52.126z" fill="#333940"/></g></g><g><path d="m145.231 320.892h97.146v41.701h-97.146z" fill="#fff"/></g><g><path d="m112.716 320.892h36.66v41.701h-36.66z" fill="#ff6c52"/></g><g><path d="m302.138 320.892h97.146v41.701h-97.146z" fill="#e9edf5"/></g><g><path d="m269.623 320.892h36.66v41.701h-36.66z" fill="#414952"/></g><g><path d="m145.231 385.36h97.146v41.701h-97.146z" fill="#fff"/></g><g><path d="m112.716 385.36h36.66v41.701h-36.66z" fill="#636978"/></g><g><path d="m302.138 385.36h97.146v41.701h-97.146z" fill="#e9edf5"/></g><g><path d="m269.623 385.36h36.66v41.701h-36.66z" fill="#1dd882"/></g></g></svg>